<?xml version="1.0" encoding="UTF-8" standalone="no"?>
<svg
   xmlns:dc="http://purl.org/dc/elements/1.1/"
   xmlns:cc="http://creativecommons.org/ns#"
   xmlns:rdf="http://www.w3.org/1999/02/22-rdf-syntax-ns#"
   xmlns:svg="http://www.w3.org/2000/svg"
   xmlns="http://www.w3.org/2000/svg"
   xmlns:xlink="http://www.w3.org/1999/xlink"
   xmlns:sodipodi="http://sodipodi.sourceforge.net/DTD/sodipodi-0.dtd"
   xmlns:inkscape="http://www.inkscape.org/namespaces/inkscape"
   inkscape:version="1.0rc1 (09960d6, 2020-04-09)"
   height="200.10001"
   width="200.10001"
   sodipodi:docname="magic360.svg"
   xml:space="preserve"
   viewBox="0 0 200.10001 200.10001"
   y="0px"
   x="0px"
   id="Слой_1"
   version="1.1"><metadata
   id="metadata456"><rdf:RDF><cc:Work
       rdf:about=""><dc:format>image/svg+xml</dc:format><dc:type
         rdf:resource="http://purl.org/dc/dcmitype/StillImage" /></cc:Work></rdf:RDF></metadata><defs
   id="defs454" /><sodipodi:namedview
   inkscape:current-layer="Слой_1"
   inkscape:window-maximized="0"
   inkscape:window-y="26"
   inkscape:window-x="0"
   inkscape:cy="99.958"
   inkscape:cx="21.215962"
   inkscape:zoom="2.215"
   showgrid="false"
   id="namedview452"
   inkscape:window-height="1094"
   inkscape:window-width="1792"
   inkscape:pageshadow="2"
   inkscape:pageopacity="0"
   guidetolerance="10"
   gridtolerance="10"
   objecttolerance="10"
   borderopacity="1"
   bordercolor="#666666"
   pagecolor="#ffffff" />
<style
   id="style418"
   type="text/css">
	.st0{clip-path:url(#SVGID_2_);}
	.st1{fill:#77B70A;}
	.st2{enable-background:new    ;}
	.st3{fill:#FFFFFF;}
</style>
<g
   transform="translate(-100.003,-100.042)"
   id="g449">
	<defs
   id="defs421">
		<rect
   y="0"
   x="0"
   height="400"
   width="400"
   id="SVGID_1_" />
	</defs>
	<clipPath
   id="SVGID_2_">
		<use
   height="100%"
   width="100%"
   y="0"
   x="0"
   id="use423"
   style="overflow:visible"
   xlink:href="#SVGID_1_" />
	</clipPath>
	<g
   clip-path="url(#SVGID_2_)"
   class="st0"
   id="a">
		<g
   id="g446"
   transform="translate(-319.997,-1700.358)">
			<path
   inkscape:connector-curvature="0"
   id="path426"
   d="m 431.6,1800.4 h 176.9 c 6.4,0 11.6,5.2 11.6,11.6 v 176.9 c 0,6.4 -5.2,11.6 -11.6,11.6 H 431.6 c -6.4,0 -11.6,-5.2 -11.6,-11.6 V 1812 c 0,-6.5 5.2,-11.6 11.6,-11.6 z"
   class="st1" />
			<g
   id="g434"
   class="st2">
				<path
   inkscape:connector-curvature="0"
   id="path428"
   d="m 470.2,1876.7 c 2.6,0 4.9,0.4 7,1.1 2.1,0.7 3.9,1.8 5.4,3.1 1.5,1.3 2.6,2.9 3.4,4.6 0.8,1.8 1.2,3.7 1.2,5.7 0,1.8 -0.2,3.4 -0.6,4.7 -0.4,1.4 -1,2.6 -1.8,3.6 -0.8,1 -1.7,1.9 -2.8,2.6 -1.1,0.7 -2.4,1.3 -3.8,1.8 3.4,1.1 5.9,2.7 7.6,4.9 1.7,2.2 2.5,4.9 2.5,8.2 0,2.8 -0.5,5.3 -1.6,7.4 -1,2.2 -2.4,4 -4.2,5.4 -1.8,1.5 -3.8,2.6 -6.1,3.3 -2.3,0.8 -4.8,1.1 -7.4,1.1 -2.8,0 -5.3,-0.3 -7.4,-1 -2.1,-0.7 -3.9,-1.6 -5.5,-2.9 -1.6,-1.3 -2.9,-2.8 -4,-4.7 -1.1,-1.8 -2,-4 -2.8,-6.4 l 4.3,-1.8 c 0.7,-0.3 1.5,-0.5 2.2,-0.5 0.7,0 1.3,0.1 1.8,0.4 0.5,0.3 0.9,0.7 1.2,1.2 0.5,0.9 1,1.8 1.5,2.7 0.6,0.9 1.2,1.7 2,2.4 0.8,0.7 1.7,1.2 2.7,1.7 1.1,0.4 2.3,0.6 3.8,0.6 1.6,0 3.1,-0.3 4.3,-0.8 1.2,-0.5 2.2,-1.2 3.1,-2.1 0.8,-0.9 1.4,-1.8 1.8,-2.9 0.4,-1.1 0.6,-2.1 0.6,-3.2 0,-1.4 -0.1,-2.6 -0.4,-3.7 -0.3,-1.1 -0.9,-2 -1.8,-2.8 -0.9,-0.8 -2.2,-1.4 -3.9,-1.8 -1.7,-0.4 -4,-0.7 -6.8,-0.7 v -6.9 c 2.4,0 4.3,-0.2 5.9,-0.6 1.6,-0.4 2.8,-1 3.7,-1.7 0.9,-0.7 1.6,-1.6 1.9,-2.7 0.4,-1 0.5,-2.2 0.5,-3.4 0,-2.7 -0.7,-4.7 -2.2,-6.1 -1.5,-1.4 -3.4,-2 -6,-2 -2.3,0 -4.2,0.6 -5.7,1.8 -1.5,1.2 -2.6,2.8 -3.2,4.7 -0.3,1 -0.7,1.7 -1.3,2.1 -0.6,0.4 -1.3,0.6 -2.1,0.6 -0.4,0 -0.9,0 -1.3,-0.1 l -5.1,-0.9 c 0.4,-2.7 1.1,-5.1 2.3,-7.1 1.1,-2 2.5,-3.7 4.2,-5.1 1.7,-1.4 3.6,-2.4 5.8,-3.1 2.2,-0.3 4.6,-0.7 7.1,-0.7 z"
   class="st3" />
				<path
   inkscape:connector-curvature="0"
   id="path430"
   d="m 517.1,1898.5 c 2.1,0 4.2,0.4 6.2,1.1 2,0.7 3.8,1.8 5.3,3.2 1.5,1.4 2.8,3.2 3.7,5.3 0.9,2.1 1.4,4.6 1.4,7.4 0,2.6 -0.5,5.1 -1.4,7.4 -0.9,2.3 -2.3,4.3 -4.1,6 -1.7,1.7 -3.8,3.1 -6.3,4.1 -2.5,1 -5.2,1.5 -8.1,1.5 -3,0 -5.7,-0.5 -8.1,-1.4 -2.4,-1 -4.4,-2.3 -6.1,-4 -1.7,-1.7 -3,-3.8 -3.9,-6.2 -0.9,-2.4 -1.3,-5.1 -1.3,-8.1 0,-2.7 0.5,-5.4 1.6,-8.2 1.1,-2.8 2.8,-5.7 5,-8.7 l 13.5,-18.1 c 0.5,-0.6 1.2,-1.2 2,-1.6 0.9,-0.4 1.9,-0.7 3.1,-0.7 h 8.6 l -16.7,20.5 c -0.4,0.4 -0.7,0.9 -1,1.2 -0.3,0.3 -0.6,0.8 -1,1.2 1.1,-0.5 2.3,-1 3.5,-1.3 1.3,-0.4 2.7,-0.6 4.1,-0.6 z m -13.4,17.5 c 0,1.6 0.2,3 0.6,4.3 0.4,1.3 1.1,2.4 1.9,3.3 0.8,0.9 1.9,1.6 3.1,2.1 1.2,0.5 2.7,0.8 4.3,0.8 1.5,0 2.9,-0.3 4.2,-0.8 1.3,-0.5 2.4,-1.2 3.3,-2.2 0.9,-0.9 1.6,-2 2.2,-3.3 0.5,-1.3 0.8,-2.6 0.8,-4.1 0,-1.6 -0.2,-3.1 -0.7,-4.3 -0.5,-1.2 -1.2,-2.4 -2.1,-3.3 -0.9,-0.9 -2,-1.6 -3.3,-2 -1.3,-0.5 -2.7,-0.7 -4.2,-0.7 -1.5,0 -2.9,0.3 -4.2,0.8 -1.3,0.5 -2.3,1.2 -3.2,2.2 -0.9,0.9 -1.6,2 -2.1,3.3 -0.5,1.3 -0.6,2.5 -0.6,3.9 z"
   class="st3" />
				<path
   inkscape:connector-curvature="0"
   id="path432"
   d="m 579.5,1905.6 c 0,4.9 -0.5,9.2 -1.6,12.8 -1.1,3.6 -2.5,6.6 -4.4,9 -1.9,2.4 -4.1,4.1 -6.6,5.3 -2.5,1.2 -5.3,1.7 -8.2,1.7 -2.9,0 -5.7,-0.6 -8.2,-1.7 -2.5,-1.2 -4.7,-2.9 -6.5,-5.3 -1.8,-2.4 -3.3,-5.4 -4.3,-9 -1,-3.6 -1.6,-7.9 -1.6,-12.8 0,-4.9 0.5,-9.2 1.6,-12.8 1,-3.6 2.5,-6.6 4.3,-9 1.8,-2.4 4,-4.1 6.5,-5.3 2.5,-1.2 5.2,-1.7 8.2,-1.7 3,0 5.7,0.6 8.2,1.7 2.5,1.1 4.7,2.9 6.6,5.3 1.9,2.4 3.3,5.4 4.4,9 1.1,3.5 1.6,7.8 1.6,12.8 z m -9.9,0 c 0,-4.1 -0.3,-7.5 -0.9,-10.1 -0.6,-2.7 -1.4,-4.8 -2.4,-6.4 -1,-1.6 -2.2,-2.7 -3.5,-3.3 -1.3,-0.6 -2.7,-1 -4.1,-1 -1.4,0 -2.7,0.3 -4,1 -1.3,0.6 -2.4,1.7 -3.4,3.3 -1,1.6 -1.8,3.7 -2.4,6.4 -0.6,2.7 -0.9,6.1 -0.9,10.1 0,4.1 0.3,7.5 0.9,10.1 0.6,2.6 1.4,4.8 2.4,6.4 1,1.6 2.1,2.7 3.4,3.3 1.3,0.6 2.6,1 4,1 1.4,0 2.8,-0.3 4.1,-1 1.3,-0.6 2.5,-1.7 3.5,-3.3 1,-1.6 1.8,-3.7 2.4,-6.4 0.6,-2.7 0.9,-6.1 0.9,-10.1 z"
   class="st3" />
			</g>
			<circle
   id="circle436"
   r="7.8000002"
   cy="1860.9"
   cx="582.5"
   class="st3" />
			<path
   inkscape:connector-curvature="0"
   id="path438"
   d="m 580.1,1919.5 -11.2,-4.1 -6.1,8.9 8.7,8.6 7.3,-4.8 z"
   class="st1" />
			<path
   inkscape:connector-curvature="0"
   id="path440"
   d="m 553,1942.4 c -1.1,-1.5 -0.9,-3.6 0.6,-4.7 0,0 0,0 0,0 l 9.9,-7.7 -8.3,-10.6 c -1.2,-1.5 -0.9,-3.6 0.6,-4.7 1.5,-1.2 3.6,-0.9 4.7,0.6 0,0 0,0 0,0 l 9.7,12.4 c 0.2,0.3 0.4,0.6 0.5,1 v 0 c 1.1,1.5 0.9,3.6 -0.6,4.7 0,0 0,0 0,0 l -12.4,9.7 c -1.4,1.1 -3.5,0.8 -4.7,-0.7 0,0 0,0 0,0 z"
   class="st3" />
			<circle
   id="circle442"
   r="5"
   cy="1917.9"
   cx="573.09998"
   class="st3" />
			<circle
   id="circle444"
   r="3.4000001"
   cy="1860.9"
   cx="582.5"
   class="st1" />
		</g>
	</g>
</g>
</svg>
